<svg width="71" height="51" viewBox="0 0 71 51" fill="none" xmlns="http://www.w3.org/2000/svg">
<path d="M70.3369 24.5136L59.6408 12.8147C59.219 12.3526 58.6215 12.0895 57.9957 12.0895H45.3498V2.61916C45.3498 1.38825 44.3522 0.390625 43.1212 0.390625H2.50831C1.2774 0.390625 0.279785 1.38857 0.279785 2.61916C0.279785 3.84975 1.2774 4.84769 2.50831 4.84769H40.8924V40.3352H21.6721C20.7094 37.1014 17.7114 34.7362 14.1697 34.7362C10.6279 34.7362 7.62931 37.1014 6.6676 40.3352H2.50831C1.2774 40.3352 0.279785 41.3328 0.279785 42.5634C0.279785 43.7946 1.2774 44.792 2.50831 44.792H6.6676C7.62931 48.0251 10.6279 50.3906 14.1697 50.3906C17.7114 50.3906 20.7094 48.0251 21.6721 44.792H43.1209H48.4037C49.3664 48.0251 52.365 50.3906 55.9061 50.3906C59.4485 50.3906 62.4465 48.0251 63.4088 44.792H68.6919C69.9228 44.792 70.9204 43.7943 70.9204 42.5634V26.0172C70.9211 25.4613 70.7122 24.9245 70.3369 24.5136ZM14.1697 45.9342C12.3114 45.9342 10.7995 44.4223 10.7995 42.5637C10.7995 40.7054 12.3114 39.1933 14.1697 39.1933C16.028 39.1933 17.5398 40.7058 17.5398 42.5637C17.5401 44.4223 16.028 45.9342 14.1697 45.9342ZM55.9064 45.9342C54.0481 45.9342 52.5363 44.4223 52.5363 42.5637C52.5363 40.7054 54.0485 39.1933 55.9064 39.1933C57.7653 39.1933 59.2772 40.7058 59.2772 42.5637C59.2775 44.4223 57.7653 45.9342 55.9064 45.9342ZM63.4094 40.3355C62.4471 37.1017 59.4491 34.7365 55.9067 34.7365C52.3653 34.7365 49.367 37.1017 48.4043 40.3355H45.3501V16.5469H57.0143L63.6354 23.789H51.012C49.7817 23.789 48.7841 24.7869 48.7841 26.0175C48.7841 27.2487 49.7817 28.2461 51.012 28.2461H66.464V40.3352H63.4094V40.3355Z" fill="#111111"/>
</svg>
